<?xml version="1.0" encoding="UTF-8" standalone="no"?>
<!-- Created with Inkscape (http://www.inkscape.org/) -->

<svg
   xmlns:dc="http://purl.org/dc/elements/1.1/"
   xmlns:cc="http://creativecommons.org/ns#"
   xmlns:rdf="http://www.w3.org/1999/02/22-rdf-syntax-ns#"
   xmlns:svg="http://www.w3.org/2000/svg"
   xmlns="http://www.w3.org/2000/svg"
   version="1.1"
   width="16"
   height="16"
   viewBox="0 0 16 16"
   id="Layer_2"
   xml:space="preserve"><metadata
     id="metadata25"><rdf:RDF><cc:Work
         rdf:about=""><dc:format>image/svg+xml</dc:format><dc:type
           rdf:resource="http://purl.org/dc/dcmitype/StillImage" /><dc:title></dc:title></cc:Work></rdf:RDF></metadata><defs
     id="defs23" /><polygon
     points="1,2 4,2 1,5 "
     transform="translate(11,9)"
     id="polygon3"
     style="fill:#ed433d" /><rect
     width="6"
     height="4"
     x="5"
     y="6"
     id="rect5"
     style="fill:#ed433d" /><polygon
     points="15,2 15,5 12,2 "
     transform="translate(-11,9)"
     id="polygon7"
     style="fill:#ed433d" /><polygon
     points="4,14 1,11 1,14 "
     transform="translate(11,-9)"
     id="polygon9"
     style="fill:#ed433d" /><polygon
     points="15,11 12,14 15,14 "
     transform="translate(-11,-9)"
     id="polygon11"
     style="fill:#ed433d" /><polygon
     points="14,2 15,3 12,5 "
     transform="translate(-11,9)"
     id="polygon13"
     style="fill:#ed433d" /><polygon
     points="14,14 12,11 15,13 "
     transform="translate(-11,-9)"
     id="polygon15"
     style="fill:#ed433d" /><polygon
     points="2,14 1,13 4,11 "
     transform="translate(11,-9)"
     id="polygon17"
     style="fill:#ed433d" /><polygon
     points="2,2 4,5 1,3 "
     transform="translate(11,9)"
     id="polygon19"
     style="fill:#ed433d" /></svg>